<?xml version="1.0" encoding="UTF-8"?>
<svg id="Layer_1" data-name="Layer 1" xmlns="http://www.w3.org/2000/svg" viewBox="0 0 67.83 67.83">
  <defs>
    <style>
      .cls-1 {
        stroke: #15345b;
        stroke-miterlimit: 10;
      }

      .cls-1, .cls-2 {
        fill: #a6d065;
      }

      .cls-3 {
        fill: #15345b;
      }

      .cls-3, .cls-2 {
        stroke-width: 0px;
      }
    </style>
  </defs>
  <circle class="cls-3" cx="33.92" cy="33.92" r="33.92"/>
  <g>
    <path class="cls-2" d="M4.27,44.77c.09-.05.18-.1.27-.15.23.66.46.17.7,0,.05-.04.1-.07.14-.11.18.45.44.33.7.11.58.1,1.18.13,1.74.31,2.94.92,5.56,2.51,8.05,4.38.52.39,1.09.73,1.5,1.22.31.36.64,1.03.52,1.39-.14.41-.74.81-1.19.88-.96.17-1.94.14-2.92.15-.41,0-.82-.11-1.23-.16-.29-.39-.6-.66-.98-.1-.04-.02-.08-.03-.12-.04-.06-.17-.09-.39-.2-.51-.34-.36-.67-.76-1.08-1-.58-.33-.98-.72-1.33-1.37-.29-.54-1.07-.76-1.59-1.17-.26-.21-.51-.5-.63-.82-.33-.9-.86-1.44-1.79-1.52-.7-.06-1-.88-.57-1.5Z"/>
    <path class="cls-2" d="M16.29,6.01c-.45-1.85,2.49-3.43,4.02-2.54,1.14.67,1.85,1.74,2.54,2.84.3.47.53.99.79,1.48.05.23.08.48.16.7.39,1.1.8,2.19,1.2,3.29.43,1.21.85,2.42,1.27,3.63.01.14.02.28.04.42-.24-.04-.54,0-.72-.14-.43-.35-.8-.78-1.2-1.17-.9-.88-1.81-1.75-2.72-2.62-.17-.16-.37-.29-.55-.44-.65-.55-1.33-1.05-1.92-1.66-.87-.89-1.58-1.99-2.79-2.44,0-.07.01-.13.02-.2-.05-.39-.09-.77-.14-1.16Z"/>
    <path class="cls-2" d="M39.39,9c.09.82.17,1.65.28,2.47.06.47.17.94.25,1.41-.66.67-1.27.3-1.91-.07-.3-.18-.65-.33-.99-.35-.54-.04-.68-.21-.38-.72.06-.1.08-.22.16-.47-.84.13-.95-.56-1.24-1.08-.12-.22-.32-.4-.51-.55-.43-.34-.89-.65-1.32-1-.1-.08-.19-.32-.16-.44.16-.61.17-.6-.42-.65-.03-.2-.07-.4-.1-.61-.02-.19-.03-.39-.05-.58-.18-1.38-.09-2.7.92-3.72.55-.56,1.16-.63,1.9-.32,1.26.52,2.07,1.45,2.58,2.74.15.43.3.86.45,1.3,0,0,.02-.04.02-.04.1.78.2,1.57.32,2.35.02.13.14.23.21.35Z"/>
    <path class="cls-2" d="M16.41,7.36c1.21.44,1.92,1.54,2.79,2.44.59.61,1.28,1.11,1.92,1.66.18.15.38.28.55.44.91.87,1.81,1.75,2.72,2.62.4.39.77.83,1.2,1.17.17.14.48.1.72.14.18.45.36.9.54,1.35.42,1.19.84,2.38,1.25,3.56.02.04.05.08.07.12.02.02.03.04.01.07,0,.08,0,.15.01.23.09.59.18,1.18.27,1.79-.07-.01-.15,0-.19-.05-.97-1.06-1.86-2.22-2.92-3.16-1.37-1.22-2.79-2.36-4.02-3.76-.39-.44-.82-.84-1.25-1.22-.16-.14-.39-.18-.59-.27-.02-.03-.03-.07-.03-.11-.08-.33-.14-.66-.24-.98-.01-.03-.22,0-.34.01l-.03-.04s.02-.05.02-.05c.02-.39.21-.9-.49-.77-.52-1.11-1.09-2.2-1.55-3.34-.24-.58-.29-1.25-.43-1.87Z"/>
    <path class="cls-2" d="M33.15,7.54c.59.05.57.05.42.65-.03.13.06.36.16.44.43.35.89.65,1.32,1,.19.15.39.33.51.55.29.52.4,1.21,1.24,1.08-.09.26-.1.38-.16.47-.3.51-.16.68.38.72.34.03.69.18.99.35.64.37,1.25.74,1.91.07.15,1.59.3,3.18.43,4.78.04.53,0,1.06,0,1.59.05.46.1.91.15,1.37-.01.05-.02.09-.04.14-.52.46-.5.71.14,1.34,0,.2,0,.4,0,.59-.18-.23-.36-.45-.53-.68-.38-.51-.69-1.09-1.13-1.51-.82-.79-1.78-1.43-2.56-2.26-.36-.38-.41-1.08-.64-1.61-.17-.38-.41-.71-.62-1.07-.39-1.36-.82-2.72-1.15-4.1-.28-1.13-.45-2.3-.67-3.45-.03-.16-.1-.32-.15-.47Z"/>
    <path class="cls-2" d="M21.07,33.5c.63.7.79,1.48.46,2.17-1.13.03-1.91-.71-2.74-1.37-1.37-1.08-2.82-2.04-4.15-3.16-1.36-1.15-2.63-2.42-3.94-3.64-.89-.83-1.72-1.74-2.68-2.46-1.02-.76-1.73-1.78-2.34-2.87-.36-.64-.47-1.43-.69-2.16.48.2,1.03.29,1.41.61.8.68,1.5,1.5,2.26,2.23,1.23,1.2,2.48,2.38,3.73,3.57,1.28,1.22,2.56,2.43,3.82,3.67.49.48.92,1.02,1.42,1.49,1.16,1.1,2.34,2.17,3.66,3.39-.09-.61-.15-1.04-.21-1.47Z"/>
    <path class="cls-2" d="M4.27,44.77c-.42.62-.13,1.44.57,1.5.93.08,1.46.62,1.79,1.52.11.32.37.61.63.82.52.42,1.3.63,1.59,1.17.35.65.75,1.04,1.33,1.37.41.23.74.64,1.08,1,.11.12.13.34.2.51-1.34-.28-2.69-.49-4-.85-1.57-.43-3.11-.97-4.66-1.5-.81-.28-1.6-.65-2.4-.97-.37-.15-.37-.49-.24-.78.68-1.49,1.44-2.9,2.98-3.54.35-.15.75-.17,1.12-.24Z"/>
    <path class="cls-2" d="M21.07,33.5c.06.43.12.86.21,1.47-1.32-1.22-2.5-2.29-3.66-3.39-.49-.47-.93-1.01-1.42-1.49-1.27-1.23-2.55-2.45-3.82-3.67-1.24-1.19-2.49-2.37-3.73-3.57-.76-.74-1.46-1.55-2.26-2.23-.38-.33-.94-.42-1.41-.61-.02-.57-.11-1.17.31-1.63.15-.16.4-.22.61-.33.12.22.2.48.37.64.43.44.9.84,1.34,1.27,1.63,1.6,3.26,3.2,4.89,4.8.97.95,1.93,1.9,2.91,2.82.94.89,1.9,1.76,2.86,2.63.39.35.51.15.53-.29.32.38.68.73.94,1.15.41.68.76,1.42,1.13,2.13.06.09.12.19.18.28h.02Z"/>
    <path class="cls-2" d="M18.8,29.93c-.02.44-.14.64-.53.29-.95-.88-1.91-1.74-2.86-2.63-.98-.93-1.94-1.88-2.91-2.82-1.63-1.6-3.26-3.2-4.89-4.8-.44-.43-.91-.82-1.34-1.27-.16-.17-.25-.43-.37-.64,0,0,.01,0,.01,0,.33-.1.65-.2.98-.3,1.01-.13,1.87.32,2.68.86,2.11,1.43,3.57,3.55,5.09,5.61.74,1,1.55,1.94,2.32,2.91.13.16.2.38.29.57-.01.33-.06.68.42.6,0,0,0,0,0,0,.09.1.19.2.28.3,0,0,0,0,0,0,.04.05.07.11.11.16.01.04.02.08.02.13.19.3.39.6.58.9.04.04.07.08.11.13Z"/>
    <path class="cls-2" d="M19.5,14.51c.2.09.43.13.59.27.44.38.86.78,1.25,1.22,1.23,1.39,2.65,2.54,4.02,3.76,1.06.94,1.95,2.1,2.92,3.16.04.04.12.03.19.05-.09-.61-.18-1.2-.27-1.79.45,1.59.9,3.19,1.35,4.78-.3-.04-.68.04-.87-.14-.51-.46-.97-.91-1.61-1.23-.73-.36-1.28-1.11-1.92-1.68-.55-.49-.58-1.61-1.6-1.54-.03,0-.05-.21-.11-.25-.15-.1-.32-.15-.47-.22-1.01-1.75-2.02-3.5-3.01-5.26-.2-.35-.3-.75-.45-1.13Z"/>
    <path class="cls-2" d="M35.12,15.55c.21.35.46.69.62,1.07.24.53.29,1.23.64,1.61.78.83,1.74,1.47,2.56,2.26.44.43.75,1.01,1.13,1.51.17.23.36.46.53.68.01.29.02.58.04.87-.05.26-.12.52-.15.78-.1.89-.17,1.79-.26,2.68-.39.35-1,.08-1.27-.59-.7-1.7-1.45-3.38-2.06-5.12-.66-1.89-1.19-3.84-1.78-5.76Z"/>
    <path class="cls-2" d="M22.95,20.9c.16.07.33.13.47.22.06.04.08.25.11.25,1.02-.07,1.05,1.05,1.6,1.54.64.57,1.2,1.32,1.92,1.68.64.32,1.1.77,1.61,1.23.19.17.57.1.87.14.12.74.27,1.48.36,2.23.05.42.05.86-.05,1.26-.03.13-.47.28-.66.22-.93-.31-1.41-1.2-1.99-1.95-1.62-2.12-3.01-4.42-4.26-6.81Z"/>
    <path class="cls-2" d="M48.78,14.94c.15-.94.9-1.78,1.66-1.63.5.1,1.13.47,1.34.92.43.9.65,1.92.89,2.91.11.44.07.93.09,1.39-.08.07-.22.13-.24.22-.13.6-.43.41-.69.16-.53-.52-1.04-1.07-1.54-1.62-.29-.33-.5-.85-.85-.99-.67-.26-.62-.8-.67-1.34Z"/>
    <path class="cls-2" d="M48.78,14.94c.06.54,0,1.08.67,1.34.35.14.55.67.85.99.5.55,1.01,1.1,1.54,1.62.26.26.56.44.69-.16.02-.09.16-.15.24-.22-.08.74-.17,1.48-.25,2.22,0,.1,0,.21,0,.31,0,0,0-.01,0-.01-.13.5-.27,1-.4,1.5-.84-.82-1.67-1.64-2.51-2.46-.17-.16-.51-.37-.48-.47.17-.66-.32-.64-.64-.79-.23-1.32-.27-2.63.29-3.89Z"/>
    <path class="cls-2" d="M48.8,25.51c-.04-1.04-.09-2.08-.13-3.12.25-.07.5-.14.67-.19.25.38.47.91.85,1.22.53.44,1.19.7,1.79,1.04.01.12.04.25.03.36-.09.63-.2,1.25-.3,1.88-.05.2-.1.39-.15.59,0,0,0,0,0,0l-.13.76s0-.01,0-.01c-.18.03-.44.16-.54.07-.41-.36-.79-.76-1.13-1.2-.35-.44-.64-.94-.95-1.41Z"/>
    <path class="cls-2" d="M51.98,24.46c-.6-.34-1.25-.61-1.79-1.04-.38-.31-.6-.85-.85-1.22-.17.05-.42.12-.67.19-.09-1.03-.19-2.06-.27-3.09-.01-.16.06-.32.09-.48.32.16.81.13.64.79-.03.1.32.3.48.47.84.82,1.67,1.64,2.51,2.46,0,.44-.01.89-.02,1.33-.04.2-.08.39-.13.59Z"/>
    <path class="cls-2" d="M48.8,25.51c.32.47.6.97.95,1.41.34.43.73.83,1.13,1.2.1.09.36-.04.54-.07-.1,1.33-.39,2.58-1.34,3.78-.89-2.13-1.24-4.18-1.29-6.31Z"/>
    <path class="cls-2" d="M26.27,15.41c-.42-1.21-.84-2.42-1.27-3.63-.39-1.1-.81-2.19-1.2-3.29-.08-.22-.11-.47-.16-.7.18.33.36.65.54.98.02.07.04.14.06.21.07.13.14.26.21.39.06.25.12.5.18.76.59,1.7,1.18,3.4,1.77,5.1-.04.06-.09.13-.13.19Z"/>
    <path class="cls-2" d="M28.19,20.95s.01-.05-.01-.07c-.02-.04-.05-.08-.07-.12-.42-1.19-.84-2.38-1.25-3.56.08,0,.15,0,.23,0,.37,1.25.74,2.5,1.11,3.75Z"/>
    <path class="cls-2" d="M40.23,27.01c.09-.89.17-1.79.26-2.68.03-.26.1-.52.15-.78.12,1.19.21,2.37-.41,3.46Z"/>
    <path class="cls-2" d="M39.39,9c-.07-.12-.19-.22-.21-.35-.12-.78-.21-1.57-.32-2.35.18.61.39,1.21.53,1.84.06.27,0,.57,0,.86Z"/>
    <path class="cls-2" d="M52.11,23.87c0-.44.01-.89.02-1.33.13-.5.27-1,.4-1.5-.14.94-.28,1.88-.41,2.83Z"/>
    <path class="cls-2" d="M27.07,17.19c-.08,0-.15,0-.23,0-.18-.45-.36-.9-.54-1.35-.01-.14-.02-.28-.04-.42.04-.06.09-.13.13-.19.22.66.45,1.31.67,1.97Z"/>
    <path class="cls-2" d="M40.62,22.09c-.64-.63-.67-.88-.14-1.34.05.45.1.89.14,1.34Z"/>
    <path class="cls-2" d="M40.51,20.62c-.05-.46-.1-.91-.15-1.37.05.46.1.91.15,1.37Z"/>
    <path class="cls-2" d="M18.39,12.58c.69-.13.51.38.49.77-.16-.26-.32-.51-.49-.77Z"/>
    <path class="cls-2" d="M18.88,13.44c.12,0,.33-.04.34-.01.1.32.16.65.24.98-.19-.32-.39-.65-.58-.97Z"/>
    <path class="cls-2" d="M16.29,6.01c.05.39.09.77.14,1.16-.31-.35-.47-.72-.14-1.16Z"/>
    <path class="cls-2" d="M38.85,6.34c-.15-.43-.3-.86-.45-1.3.15.43.3.86.45,1.3Z"/>
    <path class="cls-2" d="M18.69,29.81c-.19-.3-.39-.6-.58-.9.19.3.39.6.58.9Z"/>
    <path class="cls-2" d="M6.9,17.76c-.33.1-.65.2-.98.3.33-.1.65-.2.98-.3Z"/>
    <path class="cls-2" d="M51.42,28.05l.13-.76c-.04.25-.09.5-.13.76Z"/>
    <path class="cls-2" d="M24.63,10.13c-.06-.25-.12-.5-.18-.76.09.23.17.47.26.7,0,.02,0,.05-.02.06-.02,0-.04,0-.06,0Z"/>
    <path class="cls-2" d="M17.7,28.32c-.48.08-.44-.27-.42-.6.14.2.28.4.42.6Z"/>
    <path class="cls-2" d="M33,6.35c.02.19.03.39.05.58-.02-.19-.03-.39-.05-.58Z"/>
    <path class="cls-2" d="M51.56,27.29c.05-.2.1-.39.15-.59-.05.2-.1.39-.15.59Z"/>
    <path class="cls-2" d="M17.98,28.62c-.09-.1-.19-.2-.28-.3.09.1.19.2.28.3Z"/>
    <path class="cls-2" d="M24.24,8.98c-.02-.07-.04-.14-.06-.21.02.07.04.14.06.21Z"/>
    <path class="cls-2" d="M52.52,21.06c0-.1,0-.21,0-.31,0,.1,0,.21,0,.31Z"/>
    <path class="cls-2" d="M21.05,33.5c-.06-.09-.12-.19-.18-.28.06.09.12.19.18.28Z"/>
    <path class="cls-2" d="M18.08,28.77c-.04-.05-.07-.11-.11-.16.04.05.07.11.11.16Z"/>
    <path class="cls-2" d="M28.1,20.75s.05.08.07.12c-.02-.04-.05-.08-.07-.12Z"/>
  </g>
  <ellipse class="cls-2" cx="40.73" cy="48.71" rx="18.25" ry="16.91"/>
  <path class="cls-1" d="M52.2,39.03c3.98,6.58,2.65,18.08-7.51,21.37-7.5,2.43-16.34-1.93-17-10.79-.53-7.08,4.18-13.02,10.53-13.26,5.08-.19,9.54,4.24,9.96,9.91.34,4.53-2.68,8.33-6.74,8.49-3.25.12-6.1-2.71-6.38-6.34-.22-2.9,1.71-5.33,4.31-5.43,2.08-.08,3.91,1.74,4.08,4.06.14,1.86-1.1,3.41-2.76,3.48-1.33.05-2.5-1.11-2.61-2.6"/>
</svg>